<?xml version="1.0" encoding="UTF-8"?>
<!--
  Axon wordmark — icon + "AXON" label.
  For README headers, docs hero, and sites where horizontal layout
  matters. The wordmark uses a wide letter-spaced sans (no web font
  to avoid loading issues; characters are vector-traced inline as
  <text> with a system fallback chain).
-->
<svg xmlns="http://www.w3.org/2000/svg" viewBox="0 0 320 80" width="320" height="80" role="img" aria-label="Axon">
  <title>Axon</title>

  <!-- Glyph (left) -->
  <g transform="translate(8 8)">
    <polygon
      points="32,2 56,15 56,49 32,62 8,49 8,15"
      fill="none" stroke="#00d4b4" stroke-width="3" stroke-linejoin="round" stroke-linecap="round"/>
    <polygon
      points="32,14 47,22 47,42 32,50 17,42 17,22"
      fill="none" stroke="#00d4b4" stroke-width="0.8" stroke-opacity="0.35" stroke-linejoin="round"/>
    <g stroke="#00d4b4" stroke-width="3" stroke-linecap="round" fill="none">
      <line x1="32" y1="32" x2="32" y2="13"/>
      <line x1="32" y1="32" x2="48" y2="42"/>
      <line x1="32" y1="32" x2="16" y2="42"/>
    </g>
    <circle cx="32" cy="13" r="3" fill="#00d4b4"/>
    <circle cx="48" cy="42" r="3" fill="#00d4b4"/>
    <circle cx="16" cy="42" r="3" fill="#00d4b4"/>
    <circle cx="32" cy="32" r="4.2" fill="#00d4b4"/>
    <circle cx="32" cy="32" r="1.6" fill="#050a14"/>
  </g>

  <!-- Wordmark (right) -->
  <text
    x="92" y="50"
    font-family="'Syne', 'Helvetica Neue', Arial, sans-serif"
    font-size="40"
    font-weight="700"
    letter-spacing="6"
    fill="#e2eaf5">AXON</text>

  <!-- Tagline-style underbar -->
  <line x1="93" y1="60" x2="295" y2="60" stroke="#00d4b4" stroke-width="0.8" stroke-opacity="0.45"/>
  <text
    x="93" y="72"
    font-family="'Syne Mono', 'Courier New', monospace"
    font-size="9"
    letter-spacing="2.5"
    fill="#7a9ab8">PRIVATE · LOCAL · GRAPH-NATIVE</text>
</svg>
